<?xml version="1.0" encoding="UTF-8"?>
<svg id="Layer_2" data-name="Layer 2" xmlns="http://www.w3.org/2000/svg" viewBox="0 0 1024 1024">
  <polygon points="705.13 1024 545.36 1024 522.73 939.93 500.07 1024 339.75 1024 376.3 795.79 668.82 795.79 705.13 1024" style="fill: #276bd7;"/>
  <polygon points="668.81 795.8 376.3 795.8 359.46 640.32 685.43 640.32 668.81 795.8" style="fill: #276bd7;"/>
  <polygon points="598.76 379.78 446.68 379.78 457.94 232.06 586.95 232.06 598.76 379.78" style="fill: #225bb8;"/>
  <path d="M608.55,678.87h-172.21c-45.49,0-85.46-30.19-97.89-73.95l-23-80.96h414l-23,80.96c-12.43,43.76-52.4,73.95-97.89,73.95Z" style="fill: #276bd7;"/>
  <path d="M601.78,698.22h-158.66c-41.91,0-78.73-42.37-90.18-103.78l-21.19-113.62h381.41l-21.19,113.62c-11.46,61.41-48.27,103.78-90.18,103.78Z" style="fill: #276bd7;"/>
  <path d="M620.81,578.74h-196.72c-74.26,0-138.96-46.63-156.79-113.02h0s510.3,0,510.3,0h0c-17.83,66.39-82.53,113.02-156.79,113.02Z" style="fill: #1d4d9c;"/>
  <path d="M613.02,580.47h-181.15c-68.39,0-127.96-46.63-144.38-113.02h0s469.92,0,469.92,0h0c-16.42,66.39-76,113.02-144.38,113.02Z" style="fill: #276bd7;"/>
  <path d="M300.01,348.37h444.87c57.15,0,103.55,46.4,103.55,103.55v33.17H196.47v-33.17c0-57.15,46.4-103.55,103.55-103.55Z" style="fill: #276bd7;"/>
  <g>
    <path d="M300,467.45l-102.11-32.72c-56.12,49.5-83.62,101.6-104.61,163.25l109.83-14.38c46.27-28.57,80.37-70.5,96.89-116.15Z" style="fill: #276bd7;"/>
    <path d="M300,722.47v27.39c-102.14-52.31-160.81-104.27-206.72-151.87l109.83-14.38,96.89,138.86Z" style="fill: #276bd7;"/>
    <path d="M375.89,777.75c-28.36,31.92-46.38,36.19-70.72-5.62-3.4-5.83-5.17-12.48-5.17-19.24v-30.43c13.63-.95,18.92-.91,26.96,6.64l48.93,2.19v46.45Z" style="fill: #276bd7;"/>
  </g>
  <g>
    <path d="M744.88,471.98l102.14-37.13c56.12,49.5,83.59,101.55,104.58,163.2l-109.83-14.38c-46.27-28.57-80.37-66.03-96.89-111.68Z" style="fill: #276bd7;"/>
    <path d="M744.88,722.52v27.39c102.14-52.31,160.81-104.27,206.72-151.87l-109.83-14.38-96.89,138.86Z" style="fill: #276bd7;"/>
    <path d="M669,777.8c28.36,31.92,46.38,36.19,70.72-5.62,3.4-5.83,5.17-12.48,5.17-19.24v-30.43c-13.63-.95-18.92-.91-26.96,6.64l-48.93,2.19v46.45Z" style="fill: #276bd7;"/>
  </g>
  <path d="M627.92,113.9c0,57.36-48.2,103.87-107.66,103.87s-105.72-46.54-107.66-103.87c-2.4-70.78,48.92-92.05,108.29-95.21,62.42-3.33,117.69,15.31,107.03,95.21Z" style="fill: #1a468e;"/>
  <ellipse cx="521.16" cy="155.69" rx="86.32" ry="117.51" style="fill: #276bd7;"/>
  <path d="M414.08,34.83h0c35.46,7.07,104.1-69.78,153.87-14.3l-22.15,32.81c-34.48,51.08-112.65,40.1-131.72-18.51Z" style="fill: #1a468e;"/>
  <ellipse cx="440.96" cy="185.04" rx="16.3" ry="34.23" transform="translate(-24.14 73.84) rotate(-9.32)" style="fill: #276bd7;"/>
  <ellipse cx="601.65" cy="185.04" rx="34.23" ry="16.3" transform="translate(321.64 748.79) rotate(-80.68)" style="fill: #276bd7;"/>
  <polygon points="522.72 622.55 703.62 491.12 634.52 399.64 410.92 399.64 341.82 491.12 522.72 622.55" style="fill: #c68824; stroke: #c73c24; stroke-miterlimit: 10; stroke-width: 10px;"/>
  <text transform="translate(419.98 480.81)" style="fill: #c73c24; font-family: AvenirNext-Bold, &apos;Avenir Next&apos;; font-size: 62.3px; font-weight: 700; stroke: #8e2b1a; stroke-miterlimit: 10; stroke-width: .5px;"><tspan x="0" y="0">SUPER</tspan><tspan x="30.71" y="74.76" style="letter-spacing: -.02em;">D</tspan><tspan x="77.44" y="74.76">AD</tspan></text>
</svg>